<?xml version="1.0" standalone="no"?>
<!DOCTYPE svg PUBLIC "-//W3C//DTD SVG 20010904//EN"
 "http://www.w3.org/TR/2001/REC-SVG-20010904/DTD/svg10.dtd">
<svg version="1.0" xmlns="http://www.w3.org/2000/svg"
 width="300.000000pt" height="300.000000pt" viewBox="0 0 300.000000 300.000000"
 preserveAspectRatio="xMidYMid meet">

<g transform="translate(0.000000,300.000000) scale(0.100000,-0.100000)"
fill="#000000" stroke="none">
<path d="M1400 2830 c-290 -159 -521 -257 -719 -305 -86 -21 -135 -58 -152
-114 -7 -25 -9 -140 -6 -361 4 -287 7 -337 26 -425 63 -286 177 -502 360 -686
182 -181 447 -329 591 -329 141 0 402 144 577 318 147 146 257 326 327 533 65
197 71 245 71 619 0 335 0 335 -23 368 -30 42 -61 57 -178 87 -143 38 -306
105 -533 221 -233 119 -251 123 -341 74z m244 -111 c231 -124 449 -215 626
-262 64 -18 100 -33 112 -47 16 -20 18 -50 18 -309 0 -203 -4 -315 -15 -386
-69 -456 -343 -819 -750 -992 -130 -56 -170 -52 -340 32 -370 184 -607 513
-681 945 -14 83 -18 165 -18 397 l-1 292 25 24 c16 16 60 33 127 51 153 39
294 97 533 217 149 76 221 107 235 102 11 -3 69 -32 129 -64z"/>
<path d="M1821 1968 c-81 -84 -226 -235 -321 -335 -96 -101 -177 -183 -180
-182 -3 0 -67 73 -143 160 -76 88 -145 163 -153 166 -18 7 -44 -14 -44 -37 0
-25 318 -390 340 -390 19 0 693 699 698 725 4 20 -15 45 -35 45 -8 0 -81 -69
-162 -152z"/>
<path d="M506 462 c-6 -10 -96 -242 -96 -248 0 -2 6 -4 13 -4 7 0 20 15 28 33
13 30 17 32 71 35 57 3 57 3 72 -33 15 -34 36 -48 36 -22 0 6 -20 61 -43 121
-39 99 -67 140 -81 118z m39 -84 c10 -29 20 -59 23 -65 3 -9 -10 -13 -46 -13
l-50 0 21 65 c12 36 24 65 28 65 3 0 13 -24 24 -52z"/>
<path d="M1501 457 c-30 -15 -43 -57 -27 -88 8 -16 28 -28 66 -39 50 -14 55
-18 58 -48 3 -27 -1 -32 -23 -38 -14 -4 -46 -4 -71 -1 -48 5 -59 -8 -18 -23
37 -15 97 -12 121 5 24 17 35 59 22 91 -5 16 -22 27 -51 34 -73 19 -76 20 -82
36 -3 9 -1 24 4 35 9 15 22 19 65 19 30 0 55 4 55 9 0 23 -80 28 -119 8z"/>
<path d="M913 412 c-48 -5 -40 -22 10 -22 47 0 67 -13 67 -44 0 -18 -6 -21
-51 -21 -39 0 -54 -5 -65 -19 -43 -60 15 -115 90 -86 16 6 27 6 31 0 4 -6 10
-10 16 -10 11 0 12 160 1 178 -11 16 -59 28 -99 24z m55 -108 c32 -9 30 -51
-2 -60 -59 -15 -102 22 -60 53 20 14 29 15 62 7z"/>
<path d="M691 315 c43 -104 43 -131 3 -141 -34 -9 -30 -24 6 -24 35 0 41 10
99 159 33 87 36 101 22 101 -13 0 -24 -20 -41 -76 -13 -41 -27 -77 -31 -79 -3
-3 -20 30 -36 73 -18 49 -35 78 -46 80 -14 3 -9 -14 24 -93z"/>
<path d="M1080 307 c0 -74 3 -98 13 -95 8 3 13 32 15 86 3 79 4 82 29 88 47
12 58 -5 61 -95 2 -59 6 -81 15 -78 8 2 13 33 15 85 3 79 4 82 29 88 47 12 58
-5 61 -95 2 -59 6 -81 15 -78 16 5 22 150 7 177 -9 18 -20 19 -135 17 l-125
-1 0 -99z"/>
<path d="M1696 394 c-36 -35 -33 -136 4 -166 25 -20 81 -24 111 -8 32 18 21
25 -33 21 -41 -2 -54 1 -65 15 -26 36 -17 44 52 44 l65 0 0 43 c0 24 -5 48
-12 55 -18 18 -103 15 -122 -4z m104 -23 c18 -35 12 -41 -45 -41 -41 0 -55 4
-55 14 0 43 80 64 100 27z"/>
<path d="M1900 390 c-20 -20 -25 -45 -21 -110 4 -57 50 -82 119 -64 43 12 24
29 -28 26 -47 -4 -50 -2 -61 25 -14 36 -4 94 18 110 9 7 32 13 50 13 18 0 33
5 33 10 0 19 -89 11 -110 -10z"/>
<path d="M2060 330 c0 -67 3 -83 20 -100 22 -22 46 -25 87 -9 19 7 29 7 31 0
2 -6 8 -11 13 -11 5 0 9 45 9 100 0 83 -3 100 -15 100 -13 0 -15 -12 -11 -72
5 -83 -2 -98 -48 -98 -47 0 -56 15 -56 97 0 58 -3 73 -15 73 -12 0 -15 -16
-15 -80z"/>
<path d="M2282 311 c2 -63 7 -96 15 -98 9 -3 13 19 15 79 l3 83 38 9 c54 14
45 25 -18 23 l-56 -1 3 -95z"/>
<path d="M2436 388 c-10 -14 -16 -44 -16 -76 0 -82 47 -117 128 -96 41 11 25
29 -23 26 -50 -4 -75 9 -75 39 0 17 8 19 65 19 l65 0 0 38 c0 52 -23 72 -83
72 -36 0 -49 -5 -61 -22z m108 -20 c21 -30 12 -38 -45 -38 -41 0 -49 3 -49 18
0 44 67 59 94 20z"/>
</g>
</svg>
